<svg xmlns="http://www.w3.org/2000/svg" version="1.1" xmlns:xlink="http://www.w3.org/1999/xlink" xmlns:svgjs="http://svgjs.dev/svgjs" width="1000" height="1000"><g clip-path="url(#SvgjsClipPath1100)"><rect width="1000" height="1000" fill="#ffffff"></rect><g transform="matrix(3.5277723881255185,0,0,3.5277723881255185,0,0)"><svg xmlns="http://www.w3.org/2000/svg" version="1.1" xmlns:xlink="http://www.w3.org/1999/xlink" xmlns:svgjs="http://svgjs.dev/svgjs" width="283.465" height="283.465"><svg xmlns="http://www.w3.org/2000/svg" xmlns:xlink="http://www.w3.org/1999/xlink" viewBox="0 0 283.465 283.465">
  <defs>
    <clipPath id="clippath">
      <rect x="11.248" y="16.478" width="128.871" height="249.151" fill="none" stroke-width="0"></rect>
    </clipPath>
  <clipPath id="SvgjsClipPath1100"><rect width="1000" height="1000" x="0" y="0" rx="500" ry="500"></rect></clipPath></defs>
  <g id="Ebene_10" data-name="Ebene 10">
    <path d="M141.732,39.685c56.269,0,102.047,45.778,102.047,102.047s-45.778,102.047-102.047,102.047-102.047-45.778-102.047-102.047,45.778-102.047,102.047-102.047M141.732,28.346c-62.621,0-113.386,50.765-113.386,113.386s50.765,113.386,113.386,113.386,113.386-50.765,113.386-113.386S204.354,28.346,141.732,28.346h0Z" fill="#010101" stroke-width="0"></path>
    <rect x="140.493" y="14.423" width="124.389" height="254.381" fill="none" stroke-width="0"></rect>
  </g>
  <g id="Ebene_11" data-name="Ebene 11">
    <rect x="144.567" y="28.346" width="28.346" height="200.997" fill="#fff" stroke-width="0"></rect>
  </g>
  <g id="Ebene_9" data-name="Ebene 9">
    <rect x="172.913" y="28.346" width="11.339" height="226.772" fill="#010101" stroke-width="0"></rect>
  </g>
  <g id="Ebene_12" data-name="Ebene 12">
    <path d="M141.732,45.354c53.143,0,96.378,43.235,96.378,96.378s-43.235,96.378-96.378,96.378-96.378-43.235-96.378-96.378,43.235-96.378,96.378-96.378M141.732,39.685c-56.359,0-102.047,45.688-102.047,102.047s45.688,102.047,102.047,102.047,102.047-45.688,102.047-102.047-45.688-102.047-102.047-102.047h0Z" fill="#fff" stroke-width="0"></path>
  </g>
  <g id="Ebene_13" data-name="Ebene 13">
    <rect x="133.228" y="28.346" width="11.339" height="226.772" fill="#010101" stroke-width="0"></rect>
  </g>
  <g id="Ebene_16" data-name="Ebene 16">
    <g clip-path="url(#clippath)">
      <path d="M141.732,39.685c13.185,0,26.066,9.775,36.272,27.523,11.341,19.723,17.587,46.19,17.587,74.524s-6.246,54.801-17.587,74.524c-10.205,17.749-23.087,27.523-36.272,27.523s-26.066-9.775-36.272-27.523c-11.341-19.723-17.587-46.19-17.587-74.524s6.246-54.801,17.587-74.524c10.205-17.749,23.087-27.523,36.272-27.523M141.732,28.346c-36.007,0-65.197,50.765-65.197,113.386s29.19,113.386,65.197,113.386,65.197-50.765,65.197-113.386-29.19-113.386-65.197-113.386h0Z" fill="#010101" stroke-width="0"></path>
    </g>
  </g>
  <g id="Ebene_18" data-name="Ebene 18">
    <rect x="34.018" y="136.063" width="99.213" height="11.339" fill="#1d1d1b" stroke-width="0"></rect>
    <rect x="39.861" y="82.205" width="93.37" height="11.339" fill="#1d1d1b" stroke-width="0"></rect>
    <rect x="39.861" y="189.921" width="93.37" height="11.339" fill="#1d1d1b" stroke-width="0"></rect>
  </g>
  <g id="Ebene_15" data-name="Ebene 15">
    <rect x="184.252" y="229.064" width="5.669" height="19.843" fill="#fff" stroke-width="0"></rect>
    <rect x="184.252" y="29.264" width="5.669" height="25.512" fill="#fff" stroke-width="0"></rect>
    <rect x="127.559" y="23.944" width="5.669" height="240.945" fill="#fff" stroke-width="0"></rect>
  </g>
  <g id="Ebene_10_Kopie" data-name="Ebene 10 Kopie">
    <path d="M0,0v283.465h283.465V0H0ZM255.118,141.732c0,19.569-4.958,37.98-13.685,54.046-.436.803-.882,1.601-1.337,2.392-.91,1.583-1.857,3.142-2.841,4.675-.492.767-.992,1.527-1.502,2.281-2.038,3.016-4.217,5.929-6.527,8.729-2.888,3.5-5.983,6.824-9.265,9.953-1.969,1.877-4.006,3.685-6.106,5.418-1.4,1.155-2.828,2.278-4.283,3.366-2.183,1.632-4.426,3.188-6.727,4.663-1.534.983-3.092,1.93-4.675,2.841-1.583.91-3.19,1.783-4.82,2.618-.815.417-1.635.825-2.462,1.223-14.871,7.166-31.545,11.181-49.157,11.181s-34.287-4.016-49.157-11.181c-.826-.398-1.647-.806-2.462-1.223-1.63-.835-3.237-1.708-4.82-2.618-1.583-.91-3.142-1.857-4.675-2.841-2.3-1.475-4.544-3.03-6.727-4.663-1.455-1.088-2.883-2.211-4.283-3.366-2.1-1.733-4.136-3.54-6.106-5.418-3.282-3.129-6.376-6.453-9.265-9.953-2.311-2.8-4.49-5.713-6.527-8.729-.509-.754-1.01-1.515-1.502-2.281-.983-1.534-1.93-3.092-2.841-4.675-.455-.791-.901-1.589-1.337-2.392-8.728-16.066-13.685-34.477-13.685-54.046h0c0-8.806,1.004-17.378,2.903-25.607.211-.914.433-1.824.666-2.73.466-1.811.976-3.605,1.528-5.381,5.245-16.865,14.322-32.041,26.212-44.512,1.252-1.313,2.534-2.595,3.847-3.847,1.313-1.252,2.655-2.472,4.027-3.66,2.057-1.782,4.179-3.491,6.362-5.124,1.455-1.088,2.937-2.142,4.445-3.161,1.508-1.019,3.042-2.002,4.6-2.949,5.455-3.314,11.211-6.182,17.219-8.55,1.716-.677,3.453-1.313,5.21-1.907.878-.297,1.761-.584,2.649-.86,1.775-.552,3.569-1.062,5.381-1.528,9.057-2.33,18.552-3.57,28.337-3.57s19.28,1.239,28.337,3.57c1.811.466,3.605.976,5.381,1.528.888.276,1.771.563,2.649.86,1.756.594,3.493,1.23,5.21,1.907,6.008,2.369,11.764,5.236,17.219,8.55,1.559.947,3.092,1.93,4.6,2.949,1.508,1.019,2.99,2.073,4.445,3.161,2.183,1.632,4.305,3.342,6.362,5.124,1.371,1.188,2.714,2.408,4.027,3.66,1.313,1.252,2.595,2.534,3.847,3.847,11.89,12.471,20.966,27.647,26.212,44.512.552,1.775,1.062,3.569,1.528,5.381.233.906.455,1.816.666,2.73,1.9,8.229,2.903,16.801,2.903,25.607h0Z" fill="#fff" stroke-width="0"></path>
  </g>
</svg></svg></g></g></svg>