<?xml version="1.0" encoding="UTF-8"?>
<svg xmlns="http://www.w3.org/2000/svg" viewBox="0 0 797.831 282.937">
  <g id="Ebene_2" data-name="Ebene 2">
    <path d="M657.741,67.181c40.202,0,72.909,32.707,72.909,72.909s-32.707,72.909-72.909,72.909-72.909-32.707-72.909-72.909,32.707-72.909,72.909-72.909M657.741,56.693c-46.059,0-83.397,37.338-83.397,83.397s37.338,83.397,83.397,83.397,83.397-37.338,83.397-83.397-37.338-83.397-83.397-83.397h0Z" fill="#010101" stroke-width="0"/>
    <path d="M657.742,67.182c7.344,0,15.106,6.841,21.297,18.77,7.415,14.287,11.498,33.514,11.498,54.139s-4.083,39.853-11.498,54.139c-6.191,11.928-13.953,18.77-21.297,18.77s-15.106-6.841-21.297-18.77c-7.415-14.287-11.498-33.514-11.498-54.139s4.084-39.853,11.498-54.139c6.191-11.928,13.953-18.77,21.297-18.77M657.742,56.693c-23.905,0-43.283,37.338-43.283,83.397s19.379,83.397,43.283,83.397,43.283-37.338,43.283-83.397-19.379-83.397-43.283-83.397h0Z" fill="#010101" stroke-width="0"/>
    <polygon points="734.348 135.901 654.897 135.901 654.897 144.279 734.348 144.279 734.348 135.901 734.348 135.901" fill="#010101" stroke-width="0"/>
    <polygon points="724.695 96.297 653.133 96.297 653.133 104.674 724.695 104.674 724.695 96.297 724.695 96.297" fill="#010101" stroke-width="0"/>
    <polygon points="722.945 175.505 653.133 175.505 653.133 183.883 722.945 183.883 722.945 175.505 722.945 175.505" fill="#010101" stroke-width="0"/>
    <rect x="559.673" y="56.693" width="98.068" height="169.5" fill="#fff" stroke-width="0"/>
  </g>
  <g id="Ebene_3" data-name="Ebene 3">
    <g>
      <path d="M110.943,66.744v156.75h-11V66.744h-43.25v-10h97.5v10h-43.25Z" fill="#1d1d1b" stroke-width="0"/>
      <path d="M159.697,173.744c0,26,19,43,40.5,43,16.5,0,29-9.75,35.5-23.25l8.5,5c-6,11.5-19.5,27.75-44.75,27.75-31.75,0-50.25-23.5-50.25-53.25,0-35.5,24.5-53.75,49.5-53.75,27.5,0,48.25,22,48.25,54.5h-87.25ZM236.447,164.244c-2.5-20.25-17.5-35.5-37.75-35.5-20.75,0-35.5,15.75-38.25,35.5h76Z" fill="#1d1d1b" stroke-width="0"/>
      <path d="M276.443,121.494h10v13.25c3.75-8.75,11.5-15.5,22.5-15.5,2.75,0,7,.5,10.75,2.5l-5,9c-1-.75-3-2-7.5-2-20.5,0-20.75,27.25-20.75,40v54.75h-10v-102Z" fill="#1d1d1b" stroke-width="0"/>
      <path d="M341.442,121.494h10v13.25c3.75-8.75,11.5-15.5,22.5-15.5,2.75,0,7,.5,10.75,2.5l-5,9c-1-.75-3-2-7.5-2-20.5,0-20.75,27.25-20.75,40v54.75h-10v-102Z" fill="#1d1d1b" stroke-width="0"/>
      <path d="M486.694,121.494h10v102h-10v-18.25c-10.25,15.75-26.5,21-39.75,21-26.75,0-49.75-20.25-49.75-53.75,0-31.5,20-53.25,49.75-53.25,16,0,30,6.25,39.75,20v-17.75ZM407.694,171.744c0,23,14.25,45,40,45,25.5,0,39.5-21.5,39.5-45,0-30.25-22.25-43-39.75-43-20.25,0-39.75,15.25-39.75,43Z" fill="#1d1d1b" stroke-width="0"/>
      <path d="M548.191,56.744v156.75h46.5v10h-57.5V56.744h11Z" fill="#1d1d1b" stroke-width="0"/>
      <path d="M631.692,56.744v166.75h-11V56.744h11Z" fill="#1d1d1b" stroke-width="0"/>
    </g>
  </g>
</svg>